<?xml version="1.0" encoding="UTF-8"?> <svg xmlns="http://www.w3.org/2000/svg" id="f31ae13a-f409-43ad-b7bd-be5f57524453" data-name="Layer 1" viewBox="0 0 449.954 326.338"><path d="M400.46,83.264c27.967,6.806,54.447,17.693,73.26,32.164,29.812,22.93,42.778,54.873,37.637,84.076a77.641,77.641,0,0,1-12.977,30.961,92.691,92.691,0,0,1-12.1,14.032c-2.844,2.714-15.507,9.585-15.945,12.572-5.885,40.148,2.087,86.412-49.993,112.254C218.894,480.31,80.012,277.461,62.5,148.938,65.526,94.194,136.353,90.2,197.727,92.382c20.666.735,43.822-5.682,63.292-9.05,20.956-3.625,42.1-7.23,64-8.126C348.287,74.255,374.99,77.067,400.46,83.264Z" transform="translate(-62.501 -75.025)" fill="#ececec"></path><path d="M258.016,79.019c-31.382-1.748-60.776,12.777-79.548,35.943-23.673,29.215-30.735,72.1-18.337,111.354,11.491,36.383,37.613,67.332,62.981,96.959,17.18,20.067,36.42,41.451,61.124,47.329,25.8,6.139,49.864-6.417,71.37-18.6,22.448-12.716,45.243-25.708,62.316-44.92s27.9-45.9,22.478-73.233c-6.01-30.31-30.192-55.357-54.91-75.447C346.586,126.783,309.251,81.874,258.016,79.019Z" transform="translate(-62.501 -75.025)" fill="#197a7a"></path><path d="M202.105,117.262c-9.769,14.463-10.625,42.148-11.5,58.938a273.241,273.241,0,0,0,5.367,69.959c.919,4.4,2.051,8.985,5.063,12.322,4.993,5.534,20,3.821,27,3.829l140.524.154-.234,36.927c-.04,6.256,20.57-3.8,22.166-5.219,5.846-5.193,10.933-14.727,12.3-22.339,1.444-8.066.456-16.346-.535-24.481-2.114-17.343-5.515-35.034-6.4-52.477-.635-12.466,1.952-24.766,1.952-37.449.057-7.514-.209-15.873-5.466-21.242s-13.609-5.813-21.123-5.916c-36.117-.492-73.2-4.383-109.575-5.907-10.226-.429-35.472,3.027-43.211-3.444-4.664-3.9,1.563-10.129-7.169-10.311C208.118,110.541,203.733,114.857,202.105,117.262Z" transform="translate(-62.501 -75.025)" fill="#fff"></path><path d="M378.774,128.239h-8.462l0-.007L219.8,128.067V110.843a1.727,1.727,0,0,0-1.723-1.723,19.768,19.768,0,0,0-14.468,6.029,20.343,20.343,0,0,0-6.028,14.468l.172,113.68a20.545,20.545,0,0,0,20.5,20.5h148.3v36.171a1.727,1.727,0,0,0,1.722,1.723H378.6a20.545,20.545,0,0,0,20.5-20.5l.173-132.454A20.546,20.546,0,0,0,378.774,128.239Zm-177.581,1.378a16,16,0,0,1,4.995-12.057,16.766,16.766,0,0,1,10.507-5V222.8a20.558,20.558,0,0,0-15.5,9.3Zm17.224,131.248a17.224,17.224,0,1,1,0-34.448,2.192,2.192,0,0,0,1.55-1.9v-93.01H378.774a16.98,16.98,0,0,1,17.052,17.052v121.6a20.549,20.549,0,0,0-17.224-9.3ZM378.6,298.414H369.99V263.966H378.6a17.224,17.224,0,1,1,0,34.448Z" transform="translate(-62.501 -75.025)"></path><path d="M245.459,231.24,252,224.7a1.705,1.705,0,1,0-2.411-2.412l-6.546,6.545a1.706,1.706,0,0,0,2.412,2.412Z" transform="translate(-62.501 -75.025)" fill="#faa91a"></path><path d="M254.071,231.584a1.665,1.665,0,0,0-2.411,0l-6.546,6.545a1.706,1.706,0,0,0,2.412,2.412L254.071,234A1.666,1.666,0,0,0,254.071,231.584Z" transform="translate(-62.501 -75.025)" fill="#faa91a"></path><path d="M260.961,233.651l-6.546,6.545a1.706,1.706,0,0,0,2.412,2.412l6.545-6.545a1.666,1.666,0,0,0,0-2.412A2.068,2.068,0,0,0,260.961,233.651Z" transform="translate(-62.501 -75.025)" fill="#faa91a"></path><path d="M393.69,161.343,454.112,219.2c-1.71-1.638-12.372,9.237-13.455,10.591-3.048,3.813-4.471,7.346-8.7,10.46-5.543,4.081-18.6-12.754-22.424-16.715-7.832-8.1-15.252-16.59-22.732-25.015-15.008-16.9-30.434-33.853-49.388-46.443a36.144,36.144,0,0,1-7.311-5.685c-8.3-9.328,4.164-23.706,12.746-27.543,7.321-3.272,12.562,5.839,17.493,10.561l21.143,20.244Z" transform="translate(-62.501 -75.025)" fill="#ae352b"></path><path d="M444.226,225.556l-14.3,14.3-5.512-5.512,4.306-4.306a1.7,1.7,0,1,0-2.411-2.411l-4.306,4.306-7.579-7.579,4.306-4.306a1.7,1.7,0,1,0-2.411-2.411l-4.306,4.306-7.579-7.579,4.306-4.306a1.7,1.7,0,0,0-2.411-2.411l-4.306,4.306-7.579-7.579,4.306-4.306a1.7,1.7,0,0,0-2.411-2.411l-4.306,4.306-7.579-7.579,4.306-4.306a1.7,1.7,0,0,0-2.411-2.411l-4.306,4.306-7.579-7.579,4.306-4.306a1.7,1.7,0,0,0-2.411-2.411l-4.306,4.306-7.579-7.579,4.306-4.306a1.7,1.7,0,0,0-2.411-2.411l-4.306,4.306-7.579-7.579,4.306-4.306a1.7,1.7,0,0,0-2.411-2.411L352.077,162,344.5,154.42l4.306-4.306a1.7,1.7,0,0,0-2.411-2.411l-4.307,4.306-7.578-7.579,4.306-4.306a1.705,1.705,0,1,0-2.411-2.412l-4.307,4.306-5.511-5.511,19.98-19.808L449.91,220.044Zm9.129-6.718L347.77,113.426a1.666,1.666,0,0,0-2.411,0l-22.219,22.22a1.665,1.665,0,0,0,0,2.411C330.374,145.291,428.9,243.641,428.9,243.641a1.665,1.665,0,0,0,2.412,0l22.219-22.391a2.494,2.494,0,0,0,.344-1.206A1.566,1.566,0,0,0,453.355,218.838Z" transform="translate(-62.501 -75.025)"></path><path d="M309.533,309.61H189c0-2.456-3.584-3.629-5.327-5.29a22.974,22.974,0,0,1-5.116-7.2,16.621,16.621,0,0,1-1.548-6.134,13.174,13.174,0,0,1,4.672-10.454c4.549-3.779,9.556-2.54,14.875-2.54H309.533L339.158,292.9Z" transform="translate(-62.501 -75.025)" fill="#22adac"></path><path d="M338.3,291.352,309.533,276.2a1.876,1.876,0,0,0-.861-.172H191.892a18.248,18.248,0,0,0-3.609.412,16.454,16.454,0,0,0-7.5,3.643,17.125,17.125,0,0,0-3.174,3.6,16.859,16.859,0,0,0,14.115,26.109H308.672c.172,0,.689-.172.861-.172L338.3,294.452a1.826,1.826,0,0,0,0-3.1Zm-142.96,14.985h-3.618a13.435,13.435,0,0,1,0-26.87h3.618Zm10.162.172h-6.718V279.467H205.5Zm101.278,0H208.771V289.63h98.006Zm0-20.324H208.771v-6.718h98.006Zm13.951,13.607L310.222,305.3V280.5l10.506,5.512ZM324,298.07V287.907l9.646,5.168Z" transform="translate(-62.501 -75.025)"></path><path d="M291.62,205.92a11.713,11.713,0,1,0-8.268-3.445A11.034,11.034,0,0,0,291.62,205.92Zm-6.029-17.741a8.318,8.318,0,0,1,11.713,0,8.282,8.282,0,1,1-11.713,0Z" transform="translate(-62.501 -75.025)"></path><path d="M319.144,164.72A67.466,67.466,0,0,0,264.56,190.7c-5.6-1.5-13.07-1.247-15.4,4.065-1.443,3.291-.063,7.27,2.406,9.88s5.835,4.147,9.111,5.621a74.507,74.507,0,0,0-8.01,4.06c3.612,6.765,11.153,12.961,16.405,18.743q2.485-4.633,4.969-9.268a44.53,44.53,0,0,0,4.063,6.38c1.2,1.637,1.636,3.452,2.493,5.348.531,1.173,6.165,11.049,7.664,10.24,6.061-3.274,5.015-10.406,6.451-15.935,2.588-9.966,8.51-18.075,13.361-26.95C314.559,191.039,321.258,178.057,319.144,164.72Zm-27.718,40.561a11.095,11.095,0,1,1,11.094-11.095A11.094,11.094,0,0,1,291.426,205.281Z" transform="translate(-62.501 -75.025)" fill="#faa91a"></path><path d="M258.721,209.882l1.378,1.378-7.75,2.411a1.478,1.478,0,0,0-1.034,1.206,1.389,1.389,0,0,0,.517,1.55L269.4,234a2.409,2.409,0,0,0,1.551.516,1.819,1.819,0,0,0,1.2-1.033l2.584-7.751,1.378,1.378L288,238.991a1.564,1.564,0,0,0,1.205.516,1.863,1.863,0,0,0,1.206-.516,19.74,19.74,0,0,0,4.65-20.325c27.731-20.152,25.664-50.983,26.009-51.845a1.561,1.561,0,0,0-.517-1.2,1.857,1.857,0,0,0-1.2-.517c-1.034.344-31.348-2.239-51.845,26.009a19.394,19.394,0,0,0-20.325,4.65,1.665,1.665,0,0,0,0,2.411Zm10.852,19.808-13.607-13.607,6.717-2.24,9.129,9.129Zm19.291,5.511-8.785-8.784a67.525,67.525,0,0,0,11.713-5.856A15.894,15.894,0,0,1,288.864,235.2Zm-19.808-41.165c18.258-26.353,47.883-25.492,48.228-25.492,0,.172.172,41.51-39.788,55.462l-6.89-6.89-8.784-8.784A53.3,53.3,0,0,1,269.056,194.036Zm-3.962-.173a67.6,67.6,0,0,0-5.856,11.713l-8.784-8.785A16.5,16.5,0,0,1,265.094,193.863Z" transform="translate(-62.501 -75.025)"></path></svg> 